<mxfile host="app.diagrams.net" modified="2022-01-13T13:35:25.292Z" agent="5.0 (Windows NT 10.0; Win64; x64) AppleWebKit/537.36 (KHTML, like Gecko) Chrome/97.0.4692.71 Safari/537.36" etag="t1gSGvfNYPV8WRNY_jCu" version="14.9.4" type="github">
  <diagram id="Wmvpmsp20VQ50w3NaAK4" name="Page-1">
    <mxGraphModel dx="1813" dy="950" grid="1" gridSize="10" guides="1" tooltips="1" connect="1" arrows="1" fold="1" page="1" pageScale="1" pageWidth="827" pageHeight="1169" math="0" shadow="0">
      <root>
        <mxCell id="0" />
        <mxCell id="1" parent="0" />
        <mxCell id="14ZClflNsFuBWeHcA22H-127" value="" style="rounded=1;whiteSpace=wrap;html=1;fillColor=#6d8764;dashed=1;arcSize=7;strokeColor=#3A5431;fontColor=#ffffff;" vertex="1" parent="1">
          <mxGeometry x="90" y="860" width="440" height="240" as="geometry" />
        </mxCell>
        <mxCell id="14ZClflNsFuBWeHcA22H-123" value="" style="rounded=1;whiteSpace=wrap;html=1;fillColor=#1ba1e2;dashed=1;arcSize=7;strokeColor=#006EAF;fontColor=#ffffff;" vertex="1" parent="1">
          <mxGeometry x="90" y="630" width="440" height="150" as="geometry" />
        </mxCell>
        <mxCell id="14ZClflNsFuBWeHcA22H-39" value="样式解析" style="rounded=1;whiteSpace=wrap;html=1;opacity=60;" vertex="1" parent="1">
          <mxGeometry x="110" y="660" width="120" height="45" as="geometry" />
        </mxCell>
        <mxCell id="14ZClflNsFuBWeHcA22H-40" value="模板渲染" style="rounded=1;whiteSpace=wrap;html=1;opacity=60;" vertex="1" parent="1">
          <mxGeometry x="250" y="660" width="120" height="45" as="geometry" />
        </mxCell>
        <mxCell id="14ZClflNsFuBWeHcA22H-41" value="事件处理" style="rounded=1;whiteSpace=wrap;html=1;opacity=60;" vertex="1" parent="1">
          <mxGeometry x="390" y="660" width="120" height="45" as="geometry" />
        </mxCell>
        <mxCell id="14ZClflNsFuBWeHcA22H-87" value="Map SDK" style="rounded=1;whiteSpace=wrap;html=1;opacity=60;" vertex="1" parent="1">
          <mxGeometry x="110" y="720" width="190" height="45" as="geometry" />
        </mxCell>
        <mxCell id="14ZClflNsFuBWeHcA22H-88" value="PAG" style="rounded=1;whiteSpace=wrap;html=1;opacity=60;" vertex="1" parent="1">
          <mxGeometry x="320" y="720" width="190" height="45" as="geometry" />
        </mxCell>
        <mxCell id="14ZClflNsFuBWeHcA22H-91" value="" style="group" vertex="1" connectable="0" parent="1">
          <mxGeometry x="90" y="110" width="440" height="190" as="geometry" />
        </mxCell>
        <mxCell id="14ZClflNsFuBWeHcA22H-9" value="" style="rounded=1;whiteSpace=wrap;html=1;fillColor=#ffe6cc;dashed=1;arcSize=7;strokeColor=#d79b00;" vertex="1" parent="14ZClflNsFuBWeHcA22H-91">
          <mxGeometry width="440" height="190" as="geometry" />
        </mxCell>
        <mxCell id="14ZClflNsFuBWeHcA22H-6" value="" style="rounded=1;whiteSpace=wrap;html=1;fillColor=none;dashed=1;" vertex="1" parent="14ZClflNsFuBWeHcA22H-91">
          <mxGeometry x="10" y="90" width="420" height="90" as="geometry" />
        </mxCell>
        <mxCell id="14ZClflNsFuBWeHcA22H-1" value="首页卡片bundle" style="rounded=1;whiteSpace=wrap;html=1;opacity=60;" vertex="1" parent="14ZClflNsFuBWeHcA22H-91">
          <mxGeometry x="20" y="30" width="120" height="45" as="geometry" />
        </mxCell>
        <mxCell id="14ZClflNsFuBWeHcA22H-2" value="业务bundle" style="rounded=1;whiteSpace=wrap;html=1;opacity=60;" vertex="1" parent="14ZClflNsFuBWeHcA22H-91">
          <mxGeometry x="160" y="30" width="120" height="45" as="geometry" />
        </mxCell>
        <mxCell id="14ZClflNsFuBWeHcA22H-3" value="模板" style="rounded=1;whiteSpace=wrap;html=1;opacity=60;" vertex="1" parent="14ZClflNsFuBWeHcA22H-91">
          <mxGeometry x="20" y="120" width="120" height="45" as="geometry" />
        </mxCell>
        <mxCell id="14ZClflNsFuBWeHcA22H-4" value="数据管理" style="rounded=1;whiteSpace=wrap;html=1;opacity=60;" vertex="1" parent="14ZClflNsFuBWeHcA22H-91">
          <mxGeometry x="160" y="120" width="120" height="45" as="geometry" />
        </mxCell>
        <mxCell id="14ZClflNsFuBWeHcA22H-5" value="底图控制接口" style="rounded=1;whiteSpace=wrap;html=1;opacity=60;" vertex="1" parent="14ZClflNsFuBWeHcA22H-91">
          <mxGeometry x="300" y="120" width="120" height="45" as="geometry" />
        </mxCell>
        <mxCell id="14ZClflNsFuBWeHcA22H-7" value="框架bundle" style="text;html=1;strokeColor=none;fillColor=none;align=left;verticalAlign=middle;whiteSpace=wrap;rounded=0;dashed=1;" vertex="1" parent="14ZClflNsFuBWeHcA22H-91">
          <mxGeometry x="20" y="100" width="80" height="20" as="geometry" />
        </mxCell>
        <mxCell id="14ZClflNsFuBWeHcA22H-8" value="..." style="rounded=1;whiteSpace=wrap;html=1;opacity=60;" vertex="1" parent="14ZClflNsFuBWeHcA22H-91">
          <mxGeometry x="300" y="30" width="120" height="45" as="geometry" />
        </mxCell>
        <mxCell id="14ZClflNsFuBWeHcA22H-45" value="Hippy" style="text;html=1;strokeColor=none;fillColor=none;align=left;verticalAlign=middle;whiteSpace=wrap;rounded=0;dashed=1;" vertex="1" parent="14ZClflNsFuBWeHcA22H-91">
          <mxGeometry x="10" y="10" width="80" height="20" as="geometry" />
        </mxCell>
        <mxCell id="14ZClflNsFuBWeHcA22H-89" value="" style="rounded=1;whiteSpace=wrap;html=1;fillColor=#dae8fc;dashed=1;arcSize=7;strokeColor=#6c8ebf;" vertex="1" parent="1">
          <mxGeometry x="90" y="350" width="440" height="210" as="geometry" />
        </mxCell>
        <mxCell id="14ZClflNsFuBWeHcA22H-10" value="Hippy容器" style="rounded=1;whiteSpace=wrap;html=1;opacity=60;" vertex="1" parent="1">
          <mxGeometry x="110" y="380" width="120" height="45" as="geometry" />
        </mxCell>
        <mxCell id="14ZClflNsFuBWeHcA22H-17" value="" style="group" vertex="1" connectable="0" parent="1">
          <mxGeometry x="250" y="380" width="260" height="50" as="geometry" />
        </mxCell>
        <mxCell id="14ZClflNsFuBWeHcA22H-12" value="" style="rounded=1;whiteSpace=wrap;html=1;fillColor=none;dashed=1;" vertex="1" parent="14ZClflNsFuBWeHcA22H-17">
          <mxGeometry width="260" height="45" as="geometry" />
        </mxCell>
        <mxCell id="14ZClflNsFuBWeHcA22H-13" value="点" style="rounded=1;whiteSpace=wrap;html=1;opacity=60;" vertex="1" parent="14ZClflNsFuBWeHcA22H-17">
          <mxGeometry x="6.19047619047619" y="18.333333333333336" width="74.28571428571429" height="20" as="geometry" />
        </mxCell>
        <mxCell id="14ZClflNsFuBWeHcA22H-14" value="线" style="rounded=1;whiteSpace=wrap;html=1;opacity=60;" vertex="1" parent="14ZClflNsFuBWeHcA22H-17">
          <mxGeometry x="92.85714285714286" y="18.333333333333336" width="74.28571428571429" height="20" as="geometry" />
        </mxCell>
        <mxCell id="14ZClflNsFuBWeHcA22H-15" value="面" style="rounded=1;whiteSpace=wrap;html=1;opacity=60;" vertex="1" parent="14ZClflNsFuBWeHcA22H-17">
          <mxGeometry x="179.52380952380952" y="18.333333333333336" width="74.28571428571429" height="20" as="geometry" />
        </mxCell>
        <mxCell id="14ZClflNsFuBWeHcA22H-16" value="Hippy Bridge" style="text;html=1;strokeColor=none;fillColor=none;align=left;verticalAlign=middle;whiteSpace=wrap;rounded=0;dashed=1;" vertex="1" parent="14ZClflNsFuBWeHcA22H-17">
          <mxGeometry x="6.1935714285714285" y="4.166666666666667" width="86.66357142857143" height="8.333333333333334" as="geometry" />
        </mxCell>
        <mxCell id="14ZClflNsFuBWeHcA22H-18" value="T-Dynamic" style="rounded=1;whiteSpace=wrap;html=1;opacity=60;" vertex="1" parent="1">
          <mxGeometry x="110" y="440" width="190" height="45" as="geometry" />
        </mxCell>
        <mxCell id="14ZClflNsFuBWeHcA22H-19" value="QQMap页面路由" style="rounded=1;whiteSpace=wrap;html=1;opacity=60;" vertex="1" parent="1">
          <mxGeometry x="320" y="440" width="190" height="45" as="geometry" />
        </mxCell>
        <mxCell id="14ZClflNsFuBWeHcA22H-20" value="Hippy SDK" style="rounded=1;whiteSpace=wrap;html=1;opacity=60;" vertex="1" parent="1">
          <mxGeometry x="110" y="500" width="120" height="45" as="geometry" />
        </mxCell>
        <mxCell id="14ZClflNsFuBWeHcA22H-21" value="Network" style="rounded=1;whiteSpace=wrap;html=1;opacity=60;" vertex="1" parent="1">
          <mxGeometry x="250" y="500" width="120" height="45" as="geometry" />
        </mxCell>
        <mxCell id="14ZClflNsFuBWeHcA22H-22" value="底图接口" style="rounded=1;whiteSpace=wrap;html=1;opacity=60;" vertex="1" parent="1">
          <mxGeometry x="390" y="500" width="120" height="45" as="geometry" />
        </mxCell>
        <mxCell id="14ZClflNsFuBWeHcA22H-90" value="Android&amp;amp;iOS" style="text;html=1;strokeColor=none;fillColor=none;align=left;verticalAlign=middle;whiteSpace=wrap;rounded=0;dashed=1;" vertex="1" parent="1">
          <mxGeometry x="100" y="360" width="80" height="20" as="geometry" />
        </mxCell>
        <mxCell id="14ZClflNsFuBWeHcA22H-124" value="C++" style="text;html=1;strokeColor=none;fillColor=none;align=left;verticalAlign=middle;whiteSpace=wrap;rounded=0;dashed=1;" vertex="1" parent="1">
          <mxGeometry x="100" y="640" width="80" height="20" as="geometry" />
        </mxCell>
        <mxCell id="14ZClflNsFuBWeHcA22H-131" value="" style="group" vertex="1" connectable="0" parent="1">
          <mxGeometry x="90" y="1200" width="440" height="90" as="geometry" />
        </mxCell>
        <mxCell id="14ZClflNsFuBWeHcA22H-129" value="" style="rounded=1;whiteSpace=wrap;html=1;fillColor=#647687;dashed=1;arcSize=7;strokeColor=#314354;fontColor=#ffffff;" vertex="1" parent="14ZClflNsFuBWeHcA22H-131">
          <mxGeometry width="440" height="90" as="geometry" />
        </mxCell>
        <mxCell id="14ZClflNsFuBWeHcA22H-36" value="POI" style="rounded=1;whiteSpace=wrap;html=1;opacity=60;" vertex="1" parent="14ZClflNsFuBWeHcA22H-131">
          <mxGeometry x="20" y="30" width="120" height="45" as="geometry" />
        </mxCell>
        <mxCell id="14ZClflNsFuBWeHcA22H-37" value="路线" style="rounded=1;whiteSpace=wrap;html=1;opacity=60;" vertex="1" parent="14ZClflNsFuBWeHcA22H-131">
          <mxGeometry x="160" y="30" width="120" height="45" as="geometry" />
        </mxCell>
        <mxCell id="14ZClflNsFuBWeHcA22H-38" value="地点云" style="rounded=1;whiteSpace=wrap;html=1;opacity=60;" vertex="1" parent="14ZClflNsFuBWeHcA22H-131">
          <mxGeometry x="300" y="30" width="120" height="45" as="geometry" />
        </mxCell>
        <mxCell id="14ZClflNsFuBWeHcA22H-130" value="基础服务" style="text;html=1;strokeColor=none;fillColor=none;align=left;verticalAlign=middle;whiteSpace=wrap;rounded=0;dashed=1;" vertex="1" parent="14ZClflNsFuBWeHcA22H-131">
          <mxGeometry x="10" y="10" width="80" height="20" as="geometry" />
        </mxCell>
        <mxCell id="14ZClflNsFuBWeHcA22H-23" value="网关" style="rounded=1;whiteSpace=wrap;html=1;opacity=60;" vertex="1" parent="1">
          <mxGeometry x="110" y="890" width="400" height="30" as="geometry" />
        </mxCell>
        <mxCell id="14ZClflNsFuBWeHcA22H-33" value="聚合数据" style="rounded=1;whiteSpace=wrap;html=1;opacity=60;" vertex="1" parent="1">
          <mxGeometry x="110" y="995" width="400" height="30" as="geometry" />
        </mxCell>
        <mxCell id="14ZClflNsFuBWeHcA22H-125" value="" style="group" vertex="1" connectable="0" parent="1">
          <mxGeometry x="110" y="935" width="400" height="45" as="geometry" />
        </mxCell>
        <mxCell id="14ZClflNsFuBWeHcA22H-24" value="首页CardList服务" style="rounded=1;whiteSpace=wrap;html=1;opacity=60;" vertex="1" parent="14ZClflNsFuBWeHcA22H-125">
          <mxGeometry width="190" height="45" as="geometry" />
        </mxCell>
        <mxCell id="14ZClflNsFuBWeHcA22H-25" value="单条卡片服务" style="rounded=1;whiteSpace=wrap;html=1;opacity=60;" vertex="1" parent="14ZClflNsFuBWeHcA22H-125">
          <mxGeometry x="210" width="190" height="45" as="geometry" />
        </mxCell>
        <mxCell id="14ZClflNsFuBWeHcA22H-126" value="" style="group" vertex="1" connectable="0" parent="1">
          <mxGeometry x="110" y="1040" width="400" height="45" as="geometry" />
        </mxCell>
        <mxCell id="14ZClflNsFuBWeHcA22H-34" value="样式配置" style="rounded=1;whiteSpace=wrap;html=1;opacity=60;" vertex="1" parent="14ZClflNsFuBWeHcA22H-126">
          <mxGeometry width="190" height="45" as="geometry" />
        </mxCell>
        <mxCell id="14ZClflNsFuBWeHcA22H-35" value="元数据" style="rounded=1;whiteSpace=wrap;html=1;opacity=60;" vertex="1" parent="14ZClflNsFuBWeHcA22H-126">
          <mxGeometry x="210" width="190" height="45" as="geometry" />
        </mxCell>
        <mxCell id="14ZClflNsFuBWeHcA22H-128" value="手图后台" style="text;html=1;strokeColor=none;fillColor=none;align=left;verticalAlign=middle;whiteSpace=wrap;rounded=0;dashed=1;" vertex="1" parent="1">
          <mxGeometry x="100" y="870" width="80" height="20" as="geometry" />
        </mxCell>
      </root>
    </mxGraphModel>
  </diagram>
</mxfile>
